<?xml version="1.0" encoding="utf-8"?>
<!-- Generator: Adobe Illustrator 24.0.0, SVG Export Plug-In . SVG Version: 6.00 Build 0)  -->
<svg version="1.0" id="Layer_1" xmlns="http://www.w3.org/2000/svg" xmlns:xlink="http://www.w3.org/1999/xlink" x="0px" y="0px"
	 viewBox="0 0 50 60" style="enable-background:new 0 0 50 60;" xml:space="preserve">
<style type="text/css">
	.st0{fill:#FFFFFF;stroke:#454545;stroke-miterlimit:10;}
	.st1{fill:#FFFFFF;stroke:#454545;stroke-linecap:round;stroke-miterlimit:10;}
	.st2{fill:none;stroke:#454545;stroke-linecap:round;stroke-miterlimit:10;}
</style>
<g>
	<path class="st0" d="M13.23,58.93h-0.35c-1.28,0-2.32-1.04-2.32-2.32v-12h4.99v12C15.55,57.89,14.51,58.93,13.23,58.93z"/>
	<path class="st0" d="M34.48,35.64v15.44c0,4.46-4.83,7.24-8.69,5.02l-8.95-5.16c-1.95-1.12-4.15-1.71-6.4-1.71h-2
		c-2.75,0-5.57-2.18-6-4.89c-0.32-2.01,0.37-3.85,1.65-5.11c1.05-1.07,2.52-1.72,4.13-1.72h2.24c2.25,0,4.45-0.59,6.4-1.72
		l8.92-5.15C29.65,28.39,34.48,31.18,34.48,35.64z"/>
	<g>
		<line class="st1" x1="38.13" y1="42.28" x2="45.42" y2="42.28"/>
		<line class="st1" x1="38.13" y1="38.05" x2="43.28" y2="32.89"/>
		<line class="st1" x1="38.13" y1="46.51" x2="43.28" y2="51.66"/>
	</g>
	<g>
		<path class="st2" d="M23.77,13v13.3c0,0.84-0.68,1.53-1.53,1.53H5.73l-2.35,2.35c-0.59,0.59-1.6,0.17-1.6-0.66V13
			c0-0.84,0.68-1.53,1.53-1.53h18.93C23.08,11.47,23.77,12.15,23.77,13z"/>
		<path class="st1" d="M44.94,21.18H26.15c-1.81,0-3.28-1.47-3.28-3.28V4.36c0-1.81,1.47-3.28,3.28-3.28h18.79
			c1.81,0,3.28,1.47,3.28,3.28V17.9C48.22,19.71,46.75,21.18,44.94,21.18z"/>
		<line class="st2" x1="5.45" y1="14.73" x2="19.91" y2="14.73"/>
		<line class="st2" x1="5.45" y1="18.46" x2="19.91" y2="18.46"/>
		<g>
			<line class="st2" x1="5.45" y1="22.18" x2="11.25" y2="22.18"/>
			<line class="st2" x1="13.9" y1="22.18" x2="14.9" y2="22.18"/>
		</g>
		<path class="st2" d="M39.39,10.36l-5.05-2.92c-0.59-0.34-1.32,0.08-1.32,0.76v5.84c0,0.68,0.73,1.1,1.32,0.76l5.05-2.92
			C39.97,11.55,39.97,10.7,39.39,10.36z"/>
	</g>
	<line class="st2" x1="15.55" y1="36.43" x2="15.55" y2="50.26"/>
</g>
</svg>
