<?xml version="1.0" encoding="utf-8"?>
<!-- Generator: Adobe Illustrator 24.0.0, SVG Export Plug-In . SVG Version: 6.00 Build 0)  -->
<svg version="1.0" id="Layer_1" xmlns="http://www.w3.org/2000/svg" xmlns:xlink="http://www.w3.org/1999/xlink" x="0px" y="0px"
	 viewBox="0 0 50 60" style="enable-background:new 0 0 50 60;" xml:space="preserve">
<style type="text/css">
	.st0{fill:none;stroke:#454545;stroke-miterlimit:10;}
	.st1{fill:#454545;}
</style>
<g>
	<g>
		<path class="st0" d="M39.41,38.97L28.53,49.85v8.82h-7.06v-8.82L10.59,38.97L25,14.38L39.41,38.97z M25,30.16
			c-1.25,0-2.26,1.01-2.26,2.26c0,1.25,1.01,2.26,2.26,2.26s2.26-1.01,2.26-2.26C27.26,31.17,26.25,30.16,25,30.16z"/>
		<rect x="22.74" y="1.33" class="st0" width="4.51" height="4.51"/>
		<rect x="5.7" y="21.35" class="st0" width="3.09" height="3.09"/>
		<rect x="41.21" y="21.35" class="st0" width="3.09" height="3.09"/>
		<path class="st0" d="M7.24,21.35c0-9.81,7.95-17.76,17.76-17.76s17.76,7.95,17.76,17.76"/>
		<g>
			<g>
				<line class="st0" x1="6.14" y1="3.59" x2="43.86" y2="3.59"/>
				<g>
					<path class="st1" d="M6.28,6.22c-1.45,0-2.63-1.18-2.63-2.63c0-1.45,1.18-2.63,2.63-2.63c1.45,0,2.63,1.18,2.63,2.63
						C8.91,5.04,7.73,6.22,6.28,6.22z"/>
				</g>
				<g>
					<path class="st1" d="M43.72,6.22c1.45,0,2.63-1.18,2.63-2.63c0-1.45-1.18-2.63-2.63-2.63c-1.45,0-2.63,1.18-2.63,2.63
						C41.09,5.04,42.27,6.22,43.72,6.22z"/>
				</g>
			</g>
		</g>
	</g>
	<rect x="21.47" y="49.85" class="st1" width="7.06" height="0.82"/>
</g>
</svg>
