<?xml version="1.0" encoding="utf-8"?>
<!-- Generator: Adobe Illustrator 24.0.0, SVG Export Plug-In . SVG Version: 6.00 Build 0)  -->
<svg version="1.0" id="Layer_1" xmlns="http://www.w3.org/2000/svg" xmlns:xlink="http://www.w3.org/1999/xlink" x="0px" y="0px"
	 viewBox="0 0 50 60" style="enable-background:new 0 0 50 60;" xml:space="preserve">
<style type="text/css">
	.st0{fill:#00AEEF;}
	.st1{fill:#EC008C;}
	.st2{fill:#FFF200;}
	.st3{fill:#231F20;}
	.st4{fill:none;stroke:#454545;stroke-miterlimit:10;}
	.st5{fill:#454545;}
</style>
<g>
	<g>
		<rect x="4.48" y="50.01" class="st0" width="8.68" height="8.13"/>
		<rect x="15.27" y="50.01" class="st1" width="8.68" height="8.13"/>
		<rect x="26.05" y="50.01" class="st2" width="8.68" height="8.13"/>
		<rect x="36.84" y="50.01" class="st3" width="8.68" height="8.13"/>
	</g>
	<g>
		<g>
			<path class="st4" d="M35.55,30.61l-7.97,7.97v6.46h-5.17v-6.46l-7.97-7.97L25,12.6L35.55,30.61z M25,24.16
				c-0.91,0-1.65,0.74-1.65,1.65c0,0.91,0.74,1.65,1.65,1.65c0.91,0,1.65-0.74,1.65-1.65C26.65,24.9,25.91,24.16,25,24.16z"/>
			<rect x="22.77" y="1.83" class="st4" width="4.46" height="4.46"/>
			<rect x="5.94" y="21.6" class="st4" width="3.05" height="3.05"/>
			<rect x="41.01" y="21.6" class="st4" width="3.05" height="3.05"/>
			<path class="st4" d="M7.46,21.6c0-9.69,7.85-17.54,17.54-17.54s17.54,7.85,17.54,17.54"/>
			<g>
				<g>
					<line class="st4" x1="6.41" y1="4.06" x2="43.59" y2="4.06"/>
					<g>
						<path class="st5" d="M6.54,6.69c-1.45,0-2.63-1.18-2.63-2.63c0-1.45,1.18-2.63,2.63-2.63c1.45,0,2.63,1.18,2.63,2.63
							C9.17,5.51,7.99,6.69,6.54,6.69z"/>
					</g>
					<g>
						
							<ellipse transform="matrix(0.9239 -0.3827 0.3827 0.9239 1.7545 16.9403)" class="st5" cx="43.46" cy="4.06" rx="2.63" ry="2.63"/>
					</g>
				</g>
			</g>
		</g>
		<rect x="22.15" y="38.33" class="st5" width="5.71" height="1.06"/>
	</g>
</g>
</svg>
