<?xml version="1.0" encoding="utf-8"?>
<!-- Generator: Adobe Illustrator 24.0.0, SVG Export Plug-In . SVG Version: 6.00 Build 0)  -->
<svg version="1.0" id="Layer_1" xmlns="http://www.w3.org/2000/svg" xmlns:xlink="http://www.w3.org/1999/xlink" x="0px" y="0px"
	 viewBox="0 0 50 60" style="enable-background:new 0 0 50 60;" xml:space="preserve">
<style type="text/css">
	.st0{fill:#FFFFFF;stroke:#231F20;stroke-miterlimit:10;}
	.st1{fill:#231F20;stroke:#FFFFFF;stroke-miterlimit:10;}
	.st2{fill:none;stroke:#E4E4E4;stroke-linecap:round;stroke-miterlimit:10;}
	.st3{fill:#E4E4E4;}
	.st4{fill:#231F20;}
	.st5{fill:#F4F4F4;}
</style>
<g>
	<path class="st0" d="M9.04,55.38V4.62c0-1.66,1.34-3,3-3h25.93c1.66,0,3,1.34,3,3v50.76c0,1.66-1.34,3-3,3H12.04
		C10.38,58.38,9.04,57.04,9.04,55.38z"/>
	<circle class="st1" cx="12.47" cy="5.06" r="1.13"/>
	<line class="st2" x1="20.23" y1="56.14" x2="29.77" y2="56.14"/>
	<g>
		<g>
			<g>
				<path class="st3" d="M34.55,36.41H15.45c-1.27,0-2.3-1.03-2.3-2.3v0c0-1.27,1.03-2.3,2.3-2.3h19.09c1.27,0,2.3,1.03,2.3,2.3v0
					C36.84,35.39,35.82,36.41,34.55,36.41z"/>
				<path class="st3" d="M34.55,42.03H15.45c-1.27,0-2.3-1.03-2.3-2.3v0c0-1.27,1.03-2.3,2.3-2.3h19.09c1.27,0,2.3,1.03,2.3,2.3v0
					C36.84,41.01,35.82,42.03,34.55,42.03z"/>
				<path class="st4" d="M28.63,46.95h-7.26c-0.88,0-1.6-0.72-1.6-1.6v0c0-0.88,0.72-1.6,1.6-1.6h7.26c0.88,0,1.6,0.72,1.6,1.6v0
					C30.22,46.24,29.51,46.95,28.63,46.95z"/>
			</g>
		</g>
		<circle class="st5" cx="25" cy="20.72" r="7.68"/>
	</g>
</g>
</svg>
