<?xml version="1.0" encoding="utf-8"?>
<!-- Generator: Adobe Illustrator 24.0.0, SVG Export Plug-In . SVG Version: 6.00 Build 0)  -->
<svg version="1.0" id="Layer_1" xmlns="http://www.w3.org/2000/svg" xmlns:xlink="http://www.w3.org/1999/xlink" x="0px" y="0px"
	 viewBox="0 0 50 60" style="enable-background:new 0 0 50 60;" xml:space="preserve">
<style type="text/css">
	.st0{fill:#FFFFFF;stroke:#454545;stroke-miterlimit:10;}
</style>
<path class="st0" d="M41.19,56.91H8.81c-2.76,0-5-2.24-5-5V8.09c0-2.76,2.24-5,5-5h32.38c2.76,0,5,2.24,5,5v43.81
	C46.19,54.67,43.95,56.91,41.19,56.91z"/>
<g>
	<path class="st0" d="M31.98,27.18L38,23.7c1.64-0.95,3.68,0.24,3.68,2.13v8.34c0,1.89-2.05,3.07-3.68,2.13l-6.02-3.47
		C29.81,31.57,29.81,28.43,31.98,27.18z"/>
	<path class="st0" d="M22.91,37.36H12.32c-2.21,0-4-1.79-4-4v-6.73c0-2.21,1.79-4,4-4h10.59c2.21,0,4,1.79,4,4v6.73
		C26.91,35.57,25.12,37.36,22.91,37.36z"/>
</g>
</svg>
